<?xml version="1.0" encoding="utf-8"?>
<!-- Generator: Adobe Illustrator 17.0.1, SVG Export Plug-In . SVG Version: 6.00 Build 0)  -->
<!DOCTYPE svg PUBLIC "-//W3C//DTD SVG 1.1//EN" "http://www.w3.org/Graphics/SVG/1.1/DTD/svg11.dtd">
<svg version="1.1" id="Слой_1" xmlns="http://www.w3.org/2000/svg" xmlns:xlink="http://www.w3.org/1999/xlink" x="0px" y="0px"
	 width="9.09px" height="11.11px" viewBox="0 0 9.09 11.11" enable-background="new 0 0 9.09 11.11" xml:space="preserve">
<g>
	<g>
		<g>
			<g>
				<g>
					<path fill="#D9272E" d="M4.803,7.222c0.001-0.033,0.003-0.069,0.005-0.107C4.79,7.118,4.773,7.122,4.759,7.127
						C4.759,7.16,4.758,7.192,4.758,7.222C4.773,7.221,4.788,7.221,4.803,7.222z"/>
					<path fill="#D9272E" d="M4.762,7.026C4.762,7.043,4.761,7.059,4.761,7.075c0.017-0.002,0.033-0.003,0.05-0.002
						C4.812,7.052,4.813,7.03,4.814,7.008C4.793,7.014,4.776,7.02,4.762,7.026z"/>
					<rect x="4.398" y="6.898" fill="#D9272E" width="0.005" height="0.002"/>
					<path fill="#D9272E" d="M4.731,7.139C4.707,7.152,4.692,7.165,4.686,7.172C4.68,7.196,4.676,7.22,4.671,7.243
						C4.688,7.235,4.707,7.23,4.726,7.226C4.728,7.198,4.729,7.169,4.731,7.139z"/>
					<path fill="#D9272E" d="M4.378,7.085C4.375,7.073,4.371,7.061,4.367,7.049c-0.004-0.003-0.009-0.007-0.014-0.01
						c0.001,0.013,0.002,0.027,0.003,0.04C4.364,7.08,4.371,7.083,4.378,7.085z"/>
					<path fill="#D9272E" d="M4.376,6.805C4.38,6.816,4.383,6.829,4.387,6.842c0.004-0.006,0.008-0.013,0.012-0.02
						C4.391,6.817,4.384,6.811,4.376,6.805z"/>
					<path fill="#D9272E" d="M4.926,6.788c-0.001,0.026-0.002,0.053-0.003,0.08C4.94,6.87,4.956,6.873,4.972,6.877
						C4.973,6.849,4.975,6.82,4.977,6.791C4.959,6.79,4.941,6.788,4.926,6.788z"/>
					<path fill="#D9272E" d="M4.971,6.898C4.954,6.896,4.937,6.895,4.923,6.895C4.922,6.922,4.921,6.95,4.921,6.976
						c0.016,0.002,0.031,0.005,0.046,0.008C4.968,6.957,4.969,6.928,4.971,6.898z"/>
					<path fill="#D9272E" d="M4.904,6.789C4.883,6.79,4.865,6.792,4.849,6.794C4.848,6.815,4.847,6.838,4.846,6.862
						c0.017,0,0.034,0.001,0.052,0.003C4.9,6.839,4.902,6.814,4.904,6.789z"/>
					<path fill="#D9272E" d="M4.89,6.998C4.872,6.999,4.856,7.001,4.841,7.004C4.841,7.028,4.84,7.052,4.84,7.075
						c0.016,0.001,0.031,0.004,0.046,0.006C4.887,7.055,4.889,7.027,4.89,6.998z"/>
					<path fill="#D9272E" d="M4.845,6.903C4.844,6.925,4.843,6.947,4.842,6.969c0.017,0,0.033,0.001,0.049,0.003
						c0.001-0.025,0.003-0.05,0.005-0.075C4.877,6.898,4.859,6.9,4.845,6.903z"/>
					<path fill="#D9272E" d="M4.512,6.771l0.001-0.046C4.506,6.72,4.5,6.716,4.493,6.711C4.487,6.724,4.482,6.737,4.476,6.75
						C4.489,6.758,4.501,6.764,4.512,6.771z"/>
					<path fill="#D9272E" d="M4.626,6.7C4.63,6.708,4.634,6.715,4.638,6.723C4.64,6.722,4.642,6.721,4.644,6.72
						c0.014-0.031,0.023-0.051,0.023-0.051C4.65,6.679,4.637,6.69,4.626,6.7z"/>
					<path fill="#D9272E" d="M4.591,6.752C4.597,6.747,4.603,6.743,4.61,6.738c-0.002-0.005-0.004-0.01-0.006-0.014
						c-0.006,0.007-0.01,0.014-0.013,0.02L4.591,6.752z"/>
					<path fill="#D9272E" d="M4.608,6.523c-0.009,0.009-0.015,0.018-0.02,0.025l0,0.035C4.599,6.576,4.61,6.57,4.622,6.564
						l0.001-0.003C4.618,6.548,4.613,6.536,4.608,6.523z"/>
					<path fill="#D9272E" d="M4.71,6.848c0.004-0.011,0.008-0.021,0.013-0.033C4.72,6.817,4.717,6.819,4.713,6.82
						C4.713,6.827,4.712,6.837,4.71,6.848z"/>
					<path fill="#D9272E" d="M4.479,6.846C4.472,6.826,4.465,6.808,4.458,6.789C4.453,6.801,4.447,6.813,4.442,6.824
						C4.455,6.831,4.467,6.839,4.479,6.846z"/>
					<path fill="#D9272E" d="M4.613,6.843c0.011-0.008,0.023-0.014,0.035-0.02c-0.005-0.011-0.01-0.022-0.015-0.033
						C4.627,6.806,4.62,6.824,4.613,6.843z"/>
					<polygon fill="#D9272E" points="4.514,6.662 4.513,6.662 4.514,6.662 					"/>
					<path fill="#D9272E" d="M4.851,6.751c0.019,0,0.037,0.002,0.056,0.004c0.002-0.02,0.004-0.039,0.006-0.058
						c-0.025,0.004-0.045,0.01-0.06,0.016C4.852,6.724,4.852,6.738,4.851,6.751z"/>
					<path fill="#D9272E" d="M4.517,6.47l0-0.02C4.516,6.449,4.515,6.448,4.512,6.447C4.512,6.449,4.511,6.451,4.51,6.454
						C4.512,6.458,4.515,6.465,4.517,6.47z"/>
					<polygon fill="#D9272E" points="4.501,6.625 4.495,6.621 4.499,6.63 					"/>
					<path fill="#D9272E" d="M4.517,6.496V6.494C4.513,6.481,4.511,6.47,4.508,6.458C4.505,6.468,4.501,6.477,4.498,6.487
						C4.505,6.491,4.511,6.493,4.517,6.496z"/>
					<path fill="#D9272E" d="M4.481,6.666C4.484,6.66,4.487,6.654,4.49,6.648C4.486,6.635,4.482,6.621,4.479,6.609
						C4.47,6.603,4.464,6.599,4.455,6.592c-0.007,0.015-0.013,0.031-0.02,0.046C4.451,6.648,4.467,6.658,4.481,6.666z"/>
					<path fill="#D9272E" d="M4.252,6.751c0.003,0,0.006,0,0.009,0C4.257,6.741,4.253,6.73,4.249,6.719L4.248,6.719
						C4.25,6.729,4.251,6.74,4.252,6.751z"/>
					<path fill="#D9272E" d="M4.394,6.795C4.39,6.776,4.388,6.757,4.387,6.742C4.38,6.756,4.374,6.768,4.369,6.779
						C4.377,6.785,4.385,6.79,4.394,6.795z"/>
					<path fill="#D9272E" d="M4.185,6.755C4.203,6.753,4.222,6.752,4.24,6.751C4.24,6.738,4.239,6.724,4.238,6.714
						c-0.014-0.006-0.035-0.012-0.06-0.016C4.181,6.716,4.183,6.736,4.185,6.755z"/>
					<path fill="#D9272E" d="M4.168,6.867C4.167,6.841,4.166,6.814,4.165,6.788c-0.015,0-0.033,0.002-0.051,0.003
						C4.116,6.82,4.118,6.849,4.119,6.877C4.135,6.873,4.151,6.87,4.168,6.867z"/>
					<path fill="#D9272E" d="M4.839,6.751C4.84,6.74,4.842,6.729,4.843,6.718L4.842,6.719C4.837,6.73,4.833,6.741,4.829,6.751
						C4.832,6.751,4.836,6.751,4.839,6.751z"/>
					<path fill="#D9272E" d="M4.41,6.804c0.008-0.015,0.017-0.032,0.026-0.049c-0.014-0.01-0.027-0.02-0.041-0.03
						C4.392,6.73,4.39,6.736,4.387,6.741C4.39,6.746,4.397,6.768,4.41,6.804z"/>
					<path fill="#D9272E" d="M4.246,6.903C4.232,6.9,4.214,6.898,4.195,6.897C4.197,6.922,4.199,6.947,4.2,6.972
						C4.216,6.971,4.232,6.97,4.249,6.969C4.248,6.947,4.247,6.925,4.246,6.903z"/>
					<path fill="#D9272E" d="M4.33,7.075C4.33,7.059,4.329,7.043,4.329,7.026C4.315,7.02,4.298,7.014,4.276,7.009
						C4.278,7.03,4.279,7.052,4.28,7.073C4.297,7.073,4.314,7.073,4.33,7.075z"/>
					<path fill="#D9272E" d="M4.333,7.222c0-0.031-0.001-0.062-0.001-0.095c-0.014-0.005-0.03-0.009-0.049-0.013
						c0.002,0.038,0.004,0.074,0.005,0.107C4.302,7.221,4.318,7.221,4.333,7.222z"/>
					<path fill="#D9272E" d="M4.738,7.039c-0.006,0.004-0.011,0.007-0.014,0.01C4.72,7.061,4.716,7.073,4.712,7.085
						C4.72,7.083,4.727,7.08,4.735,7.079C4.736,7.065,4.737,7.052,4.738,7.039z"/>
					<path fill="#D9272E" d="M4.17,6.976c0-0.026-0.001-0.053-0.002-0.081c-0.014,0-0.032,0.001-0.048,0.003
						c0.002,0.03,0.003,0.059,0.004,0.086C4.139,6.981,4.154,6.978,4.17,6.976z"/>
					<path fill="#D9272E" d="M4.251,7.075c0-0.023-0.001-0.047-0.002-0.071c-0.015-0.003-0.03-0.005-0.048-0.006
						c0.001,0.029,0.003,0.057,0.004,0.083C4.22,7.078,4.235,7.076,4.251,7.075z"/>
					<path fill="#D9272E" d="M4.438,6.726c-0.006-0.021-0.011-0.04-0.014-0.058c0,0,0.011,0.024,0.027,0.059
						c0.006-0.011,0.011-0.023,0.017-0.034c-0.014-0.01-0.029-0.021-0.044-0.032c-0.007,0.015-0.013,0.029-0.02,0.043
						C4.416,6.712,4.427,6.719,4.438,6.726z"/>
					<path fill="#D9272E" d="M4.61,6.618c-0.003,0.01-0.006,0.02-0.009,0.03C4.603,6.654,4.606,6.66,4.609,6.666
						c0.015-0.01,0.032-0.018,0.049-0.024c-0.007-0.015-0.014-0.031-0.02-0.047C4.627,6.603,4.617,6.611,4.61,6.618z"/>
					<path fill="#D9272E" d="M4.667,6.669C4.665,6.682,4.661,6.698,4.656,6.714c0.01-0.004,0.019-0.008,0.029-0.011
						C4.68,6.691,4.675,6.679,4.669,6.667C4.668,6.667,4.668,6.668,4.667,6.669z"/>
					<path fill="#D9272E" d="M4.826,6.862C4.828,6.84,4.83,6.818,4.833,6.797C4.823,6.8,4.815,6.802,4.808,6.805
						C4.799,6.826,4.79,6.847,4.782,6.868C4.797,6.865,4.811,6.863,4.826,6.862z"/>
					<polygon fill="#D9272E" points="4.623,6.563 4.624,6.563 4.623,6.562 					"/>
					<path fill="#D9272E" d="M4.681,6.804c0.013-0.036,0.02-0.059,0.022-0.064C4.7,6.734,4.697,6.727,4.693,6.72
						c-0.016,0.01-0.031,0.019-0.043,0.028C4.661,6.768,4.671,6.787,4.681,6.804z"/>
					<path fill="#D9272E" d="M4.443,6.549C4.45,6.534,4.458,6.519,4.465,6.504C4.449,6.492,4.432,6.479,4.414,6.465
						c-0.007,0.017-0.015,0.034-0.022,0.05C4.409,6.527,4.426,6.539,4.443,6.549z"/>
					<path fill="#D9272E" d="M4.479,6.475c0.007-0.014,0.013-0.028,0.019-0.04C4.483,6.423,4.465,6.409,4.444,6.392
						c-0.007,0.016-0.013,0.033-0.02,0.049C4.444,6.454,4.462,6.465,4.479,6.475z"/>
					<polygon fill="#D9272E" points="4.468,6.562 4.467,6.564 4.468,6.565 					"/>
					<path fill="#D9272E" d="M4.653,6.408c-0.024,0.017-0.04,0.033-0.05,0.047c0.003,0.006,0.005,0.011,0.008,0.017
						C4.63,6.462,4.65,6.454,4.67,6.448C4.664,6.435,4.659,6.421,4.653,6.408z"/>
					<rect x="4.587" y="6.48" fill="#D9272E" width="0.004" height="0.007"/>
					<path fill="#D9272E" d="M4.455,6.363C4.479,6.38,4.5,6.392,4.514,6.399c0.002-0.003,0.003-0.007,0.005-0.01l0.001-0.036
						c-0.012-0.01-0.028-0.024-0.046-0.038C4.468,6.33,4.462,6.346,4.455,6.363z"/>
					<path fill="#D9272E" d="M5.398,6.088c0.004-0.016,0.008-0.033,0.012-0.046c0,0-0.002,0.018-0.005,0.049
						c0.032,0.011,0.054,0.021,0.054,0.021c-0.02-0.005-0.038-0.008-0.055-0.011c-0.003,0.027-0.006,0.061-0.01,0.1
						c0.006,0.003,0.01,0.004,0.01,0.004C5.4,6.205,5.397,6.204,5.393,6.203C5.378,6.369,5.357,6.615,5.366,6.698
						c-0.018,0.015-0.035,0.03-0.051,0.045C5.321,6.659,5.342,6.396,5.375,6.2C5.352,6.195,5.33,6.191,5.31,6.189
						C5.307,6.219,5.304,6.256,5.3,6.297c0.015,0.006,0.025,0.01,0.025,0.01C5.316,6.305,5.309,6.304,5.3,6.303
						C5.297,6.33,5.295,6.359,5.292,6.389c0.015,0.006,0.025,0.01,0.025,0.01C5.307,6.397,5.3,6.396,5.292,6.394
						c-0.013,0.151-0.023,0.318-0.016,0.38L5.269,6.782c-0.015,0.013-0.03,0.027-0.044,0.04c0.004-0.047,0.014-0.174,0.029-0.313
						c-0.022-0.006-0.043-0.01-0.062-0.013C5.189,6.531,5.186,6.567,5.184,6.603C5.204,6.61,5.216,6.616,5.216,6.616
						C5.204,6.613,5.195,6.612,5.184,6.609C5.177,6.716,5.174,6.814,5.18,6.859L5.164,6.88L5.131,6.913
						c0.002-0.029,0.007-0.105,0.015-0.198C5.126,6.711,5.108,6.707,5.091,6.704C5.09,6.738,5.09,6.771,5.09,6.803
						c0.016,0.006,0.027,0.011,0.027,0.011C5.107,6.811,5.099,6.81,5.09,6.808c0,0.04,0.001,0.077,0.002,0.106
						c0.001,0,0.003,0.001,0.003,0.001c-0.001,0-0.002,0-0.003,0c0.001,0.013,0.002,0.025,0.003,0.034
						C5.091,6.953,5.086,6.957,5.082,6.962c0.087-0.09,0.188-0.185,0.307-0.283C5.397,6.584,5.43,6.247,5.474,6.046
						C5.32,5.981,5.244,6.004,5.218,6.019C5.209,6.032,5.2,6.047,5.191,6.061C5.261,6.051,5.343,6.07,5.398,6.088z"/>
					<path fill="#D9272E" d="M5.091,6.69c0.023,0.008,0.041,0.015,0.054,0.02c0.003-0.034,0.006-0.07,0.01-0.108
						c-0.022-0.004-0.043-0.008-0.062-0.01C5.093,6.625,5.092,6.658,5.091,6.69z"/>
					<path fill="#D9272E" d="M4.661,6.936C4.66,6.939,4.659,6.943,4.658,6.947c0.003,0.005,0.006,0.011,0.009,0.015
						C4.66,6.983,4.654,7.001,4.648,7.02C4.646,7.015,4.643,7.009,4.64,7.003C4.634,7.023,4.627,7.043,4.62,7.063
						C4.623,7.068,4.627,7.075,4.631,7.08C4.624,7.104,4.618,7.126,4.613,7.146C4.609,7.139,4.604,7.128,4.6,7.119
						C4.599,7.122,4.598,7.124,4.597,7.127l0.001,0.032l0.013,0.002C4.625,7.096,4.647,7.016,4.682,6.92
						C4.675,6.925,4.667,6.931,4.661,6.936z"/>
					<path fill="#D9272E" d="M5.103,6.376c-0.001,0.023-0.002,0.05-0.004,0.08c0.025,0.005,0.049,0.012,0.07,0.019
						c0.004-0.033,0.008-0.066,0.013-0.098C5.153,6.375,5.126,6.375,5.103,6.376z"/>
					<path fill="#D9272E" d="M5.254,6.507C5.258,6.468,5.263,6.429,5.268,6.39C5.244,6.385,5.221,6.381,5.201,6.379
						C5.198,6.411,5.195,6.447,5.193,6.483C5.22,6.492,5.242,6.501,5.254,6.507z"/>
					<path fill="#D9272E" d="M4.586,6.2l0.002,0.005c0.026-0.017,0.057-0.029,0.086-0.038c-0.006-0.021-0.01-0.041-0.013-0.059
						c-0.046,0.025-0.069,0.052-0.08,0.07l0,0.031c0.002-0.001,0.003-0.003,0.005-0.004L4.586,6.2z"/>
					<path fill="#D9272E" d="M4.918,6.655c0.003-0.02,0.005-0.04,0.008-0.058C4.91,6.601,4.898,6.606,4.888,6.611
						C4.881,6.627,4.873,6.641,4.866,6.657C4.883,6.655,4.9,6.655,4.918,6.655z"/>
					<path fill="#D9272E" d="M5.002,6.9c0,0.034,0,0.064,0.001,0.092C5.022,6.996,5.036,7,5.044,7.003
						C5.053,6.993,5.06,6.985,5.069,6.975C5.063,6.982,5.056,6.988,5.05,6.995c0.001-0.021,0.002-0.052,0.003-0.087
						C5.036,6.905,5.018,6.901,5.002,6.9z"/>
					<path fill="#D9272E" d="M4.161,6.694C4.145,6.692,4.127,6.692,4.107,6.692c0.002,0.025,0.004,0.051,0.006,0.076
						c0.017-0.004,0.034-0.008,0.052-0.011C4.163,6.736,4.162,6.714,4.161,6.694z"/>
					<path fill="#D9272E" d="M5.098,6.484C5.097,6.512,5.096,6.541,5.095,6.572c0.024,0.007,0.044,0.014,0.062,0.02
						C5.16,6.559,5.164,6.525,5.168,6.491C5.142,6.487,5.119,6.485,5.098,6.484z"/>
					<path fill="#D9272E" d="M4.08,6.588c-0.018,0-0.038,0.001-0.06,0.003c0.002,0.031,0.005,0.061,0.006,0.092
						c0.018-0.005,0.037-0.01,0.057-0.015C4.082,6.639,4.081,6.613,4.08,6.588z"/>
					<path fill="#D9272E" d="M5.013,6.555c0.02,0.003,0.04,0.007,0.059,0.012C5.075,6.538,5.077,6.511,5.08,6.484
						c-0.025,0-0.046,0.001-0.064,0.004C5.015,6.506,5.014,6.529,5.013,6.555z"/>
					<path fill="#D9272E" d="M5.064,6.682C5.066,6.651,5.068,6.621,5.07,6.59C5.049,6.588,5.029,6.587,5.011,6.587
						C5.01,6.613,5.009,6.639,5.008,6.667C5.028,6.672,5.046,6.677,5.064,6.682z"/>
					<path fill="#D9272E" d="M3.996,6.572c-0.001-0.031-0.002-0.06-0.004-0.088C3.972,6.485,3.949,6.487,3.923,6.491
						c0.004,0.034,0.008,0.068,0.011,0.101C3.952,6.586,3.973,6.579,3.996,6.572z"/>
					<path fill="#D9272E" d="M4.417,7.229C4.412,7.21,4.409,7.191,4.405,7.172C4.398,7.164,4.384,7.152,4.36,7.139
						c0.002,0.03,0.003,0.059,0.005,0.087C4.384,7.23,4.402,7.235,4.419,7.243L4.417,7.229z"/>
					<path fill="#D9272E" d="M3.996,6.949c0.001-0.01,0.002-0.021,0.003-0.034c-0.001,0-0.002,0-0.003,0
						c0,0,0.002-0.001,0.003-0.001c0.002-0.029,0.002-0.065,0.002-0.106C3.992,6.81,3.984,6.811,3.974,6.813
						c0,0,0.011-0.005,0.027-0.011c0-0.031-0.001-0.064-0.001-0.099C3.983,6.707,3.965,6.711,3.946,6.715
						C3.953,6.808,3.959,6.884,3.96,6.913L3.927,6.88L3.911,6.859c0.006-0.044,0.003-0.142-0.004-0.249
						c-0.011,0.003-0.02,0.004-0.032,0.007c0,0,0.012-0.006,0.031-0.013C3.905,6.567,3.902,6.531,3.899,6.496
						c-0.02,0.004-0.04,0.008-0.062,0.013c0.015,0.138,0.025,0.265,0.029,0.313c-0.015-0.013-0.029-0.026-0.044-0.04L3.815,6.774
						c0.007-0.062-0.003-0.229-0.016-0.38C3.791,6.396,3.784,6.397,3.774,6.399c0,0,0.01-0.004,0.025-0.01
						C3.796,6.359,3.794,6.33,3.791,6.303C3.782,6.304,3.775,6.305,3.765,6.308c0,0,0.01-0.004,0.026-0.01
						c-0.004-0.041-0.007-0.078-0.01-0.109C3.761,6.191,3.739,6.195,3.716,6.2C3.749,6.396,3.77,6.659,3.777,6.743
						C3.76,6.727,3.742,6.713,3.724,6.698c0.009-0.083-0.011-0.328-0.026-0.494C3.694,6.204,3.691,6.204,3.687,6.205
						c0,0,0.004-0.002,0.011-0.005c-0.004-0.039-0.007-0.073-0.01-0.1C3.67,6.104,3.653,6.106,3.632,6.111
						c0,0,0.022-0.01,0.055-0.021C3.684,6.06,3.682,6.042,3.682,6.042c0.004,0.013,0.008,0.03,0.012,0.046
						C3.748,6.07,3.83,6.051,3.9,6.061C3.891,6.047,3.882,6.032,3.873,6.018C3.845,6.003,3.769,5.982,3.616,6.046
						C3.66,6.247,3.693,6.584,3.702,6.679C3.821,6.778,3.923,6.873,4.01,6.964C4.006,6.958,4.001,6.954,3.996,6.949z"/>
					<path fill="#D9272E" d="M6.798,7.381C6.367,7.299,5.572,7.274,4.7,7.835l0.006,0.126l0.002-0.014l0.069,0.015L4.711,8.081
						l0.008,0.193H4.367L4.373,8.14L4.313,8.04l0.065-0.017l0.007-0.172l-0.02-0.033C3.471,7.254,2.663,7.303,2.247,7.39
						c0.17,0.136,0.294,0.234,0.339,0.27C2.45,7.861,1.765,8.868,1.765,8.868l2.603-0.602L4.363,8.374l0.004-0.001l0.037,0.191
						L4.359,8.49L4.351,8.686l0.004-0.001l0.037,0.192L4.347,8.801L4.34,8.981l0,0l0.037,0.191L4.335,9.104L4.324,9.384l0.003-0.001
						l0.038,0.191L4.319,9.499L4.307,9.808l0.001,0l0.037,0.191L4.303,9.93l-0.017,0.442l0.007-0.002l0.037,0.191l-0.048-0.08
						l-0.025,0.627h0.559l-0.021-0.613l-0.039,0.065l0.036-0.182L4.776,9.94L4.74,9.999l0.033-0.168L4.761,9.507L4.72,9.574
						l0.037-0.189l-0.01-0.278L4.708,9.172l0.035-0.181L4.737,8.803L4.693,8.876L4.73,8.685l0.003,0.001L4.726,8.489L4.681,8.564
						l0.037-0.191l0.004,0.001L4.719,8.275l2.39,0.462c0,0-0.602-0.844-0.74-1.037C6.423,7.66,6.583,7.541,6.798,7.381z"/>
					<polygon fill="#D9272E" points="2.227,7.374 2.24,7.371 2.227,7.374 					"/>
					<path fill="#D9272E" d="M4.047,7.003C4.055,7,4.07,6.996,4.088,6.991C4.089,6.964,4.089,6.933,4.089,6.9
						C4.073,6.901,4.055,6.905,4.038,6.908C4.039,6.943,4.04,6.974,4.04,6.995C4.035,6.989,4.03,6.984,4.024,6.978
						C4.032,6.987,4.039,6.994,4.047,7.003z"/>
					<path fill="#D9272E" d="M4.38,6.847C4.378,6.823,4.376,6.808,4.376,6.808c-0.005-0.007-0.01-0.01-0.014-0.013
						c0,0.001-0.001,0.001-0.001,0.001C4.36,6.795,4.359,6.794,4.359,6.794L4.358,6.792C4.366,6.811,4.373,6.829,4.38,6.847z"/>
					<path fill="#D9272E" d="M3.987,6.376C3.965,6.375,3.938,6.375,3.908,6.378c0.005,0.031,0.009,0.064,0.013,0.098
						c0.022-0.007,0.045-0.014,0.07-0.019C3.99,6.426,3.989,6.399,3.987,6.376z"/>
					<path fill="#D9272E" d="M4.075,6.488c-0.018-0.003-0.04-0.004-0.065-0.004c0.003,0.027,0.006,0.055,0.008,0.083
						c0.019-0.005,0.039-0.009,0.06-0.012C4.077,6.529,4.076,6.506,4.075,6.488z"/>
					<path fill="#D9272E" d="M3.81,6.299c0.004,0.027,0.008,0.054,0.012,0.082C3.84,6.374,3.863,6.367,3.889,6.36
						c-0.002-0.026-0.004-0.05-0.006-0.071C3.861,6.29,3.837,6.294,3.81,6.299z"/>
					<path fill="#D9272E" d="M3.89,6.379C3.87,6.381,3.847,6.385,3.823,6.39c0.005,0.039,0.01,0.078,0.014,0.117
						c0.012-0.005,0.034-0.014,0.062-0.024C3.896,6.447,3.893,6.411,3.89,6.379z"/>
					<path fill="#D9272E" d="M3.997,6.593c-0.019,0.002-0.04,0.006-0.061,0.01c0.004,0.037,0.007,0.074,0.01,0.108
						C3.958,6.706,3.976,6.698,4,6.69C3.999,6.658,3.998,6.625,3.997,6.593z"/>
					<path fill="#D9272E" d="M5.209,6.289C5.207,6.309,5.205,6.333,5.202,6.36c0.026,0.007,0.048,0.014,0.067,0.021
						c0.004-0.028,0.008-0.055,0.012-0.082C5.254,6.294,5.23,6.29,5.209,6.289z"/>
					<path fill="#D9272E" d="M4.507,7C4.496,6.993,4.485,6.986,4.473,6.978c0.006,0.017,0.013,0.033,0.019,0.05
						C4.497,7.02,4.502,7.01,4.507,7z"/>
					<path fill="#D9272E" d="M4.597,7.024c0.001,0.001,0.002,0.003,0.002,0.004c0.004-0.012,0.009-0.024,0.013-0.036
						C4.605,7.004,4.6,7.015,4.597,7.024z"/>
					<path fill="#D9272E" d="M4.502,7.148c-0.004-0.01-0.007-0.019-0.011-0.029C4.486,7.128,4.482,7.137,4.478,7.145L4.502,7.148z"
						/>
					<path fill="#D9272E" d="M4.508,6.964l0.001-0.045C4.506,6.912,4.503,6.905,4.5,6.898C4.493,6.915,4.485,6.932,4.478,6.947
						C4.488,6.954,4.498,6.959,4.508,6.964z"/>
					<path fill="#D9272E" d="M4.6,6.92C4.598,6.925,4.596,6.929,4.594,6.933l0,0.016c0.005-0.004,0.01-0.009,0.015-0.013
						C4.606,6.931,4.603,6.926,4.6,6.92z"/>
					<path fill="#D9272E" d="M4.423,6.914C4.42,6.903,4.417,6.893,4.414,6.882c-0.003,0.007-0.007,0.014-0.01,0.02
						C4.411,6.906,4.417,6.91,4.423,6.914z"/>
					<path fill="#D9272E" d="M4.598,6.251C4.592,6.258,4.587,6.264,4.583,6.27l0.001,0.045c0.009-0.006,0.018-0.012,0.028-0.017
						C4.607,6.281,4.602,6.266,4.598,6.251z"/>
					<path fill="#D9272E" d="M4.592,6.808l0,0.017c0,0.001,0.001,0.002,0.001,0.003C4.602,6.81,4.61,6.793,4.617,6.777
						C4.607,6.788,4.598,6.798,4.592,6.808z"/>
					<path fill="#D9272E" d="M4.624,6.887c0.005,0.01,0.01,0.02,0.015,0.028l0.002-0.001c0.008-0.021,0.015-0.041,0.022-0.06
						c0,0-0.001-0.001-0.001-0.002C4.647,6.865,4.634,6.876,4.624,6.887z"/>
					<path fill="#D9272E" d="M4.428,6.855c0.007,0.019,0.015,0.04,0.023,0.062c0.008-0.014,0.016-0.028,0.024-0.044
						C4.46,6.864,4.446,6.856,4.432,6.846C4.43,6.849,4.429,6.852,4.428,6.855z"/>
					<path fill="#D9272E" d="M4.497,6.828c0.004-0.007,0.007-0.014,0.011-0.022C4.498,6.799,4.489,6.794,4.477,6.785
						C4.484,6.799,4.49,6.813,4.497,6.828z"/>
					<path fill="#D9272E" d="M4.46,7.08c0.003-0.005,0.007-0.012,0.011-0.018c-0.007-0.02-0.014-0.039-0.02-0.059
						C4.448,7.009,4.446,7.015,4.443,7.02C4.437,7.001,4.431,6.983,4.424,6.962c0.002-0.004,0.005-0.009,0.008-0.013
						C4.426,6.946,4.421,6.942,4.416,6.938C4.442,7.012,4.46,7.075,4.473,7.13C4.469,7.114,4.465,7.098,4.46,7.08z"/>
					<path fill="#D9272E" d="M4.283,6.804C4.276,6.802,4.268,6.8,4.259,6.797C4.261,6.818,4.263,6.84,4.265,6.862
						C4.28,6.863,4.294,6.865,4.308,6.868C4.3,6.846,4.291,6.826,4.283,6.804z"/>
					<path fill="#D9272E" d="M4.927,6.758c0.018,0.003,0.035,0.007,0.051,0.01C4.98,6.743,4.982,6.718,4.984,6.692
						c-0.02,0-0.039,0-0.055,0.002C4.929,6.714,4.928,6.736,4.927,6.758z"/>
					<path fill="#D9272E" d="M4.682,6.895C4.681,6.891,4.678,6.887,4.677,6.883C4.675,6.888,4.674,6.893,4.672,6.899
						C4.676,6.898,4.679,6.896,4.682,6.895z"/>
					<path fill="#D9272E" d="M4.641,6.377C4.635,6.362,4.63,6.348,4.625,6.334c-0.02,0.017-0.032,0.032-0.04,0.044l0,0.033
						C4.602,6.397,4.621,6.386,4.641,6.377z"/>
					<path fill="#D9272E" d="M4.754,6.744C4.746,6.761,4.739,6.777,4.732,6.793l0.001,0c0.016-0.036,0.033-0.075,0.052-0.115
						C4.783,6.681,4.782,6.684,4.78,6.687C4.779,6.685,4.778,6.681,4.777,6.679C4.759,6.686,4.742,6.693,4.727,6.701
						C4.737,6.717,4.746,6.732,4.754,6.744z"/>
					<path fill="#D9272E" d="M4.325,6.933c-0.012-0.008-0.03-0.017-0.056-0.025c0.002,0.02,0.003,0.04,0.005,0.061
						C4.292,6.97,4.31,6.971,4.327,6.974C4.326,6.96,4.326,6.947,4.325,6.933z"/>
					<path fill="#D9272E" d="M4.766,6.933C4.765,6.947,4.764,6.96,4.764,6.974c0.017-0.003,0.035-0.005,0.053-0.005
						c0.001-0.02,0.003-0.041,0.005-0.061C4.796,6.916,4.777,6.925,4.766,6.933z"/>
					<path fill="#D9272E" d="M4.696,6.83c0.002,0.004,0.005,0.009,0.007,0.012c0.002-0.007,0.004-0.013,0.006-0.02
						C4.705,6.825,4.7,6.827,4.696,6.83z"/>
					<path fill="#D9272E" d="M4.515,6.592L4.516,6.54c-0.009-0.006-0.019-0.014-0.03-0.022C4.48,6.533,4.474,6.547,4.468,6.562
						c0,0,0.001,0.003,0.002,0.005C4.487,6.577,4.502,6.586,4.515,6.592z"/>
					<path fill="#D9272E" d="M4.729,6.794C4.722,6.779,4.713,6.761,4.704,6.742C4.703,6.759,4.7,6.78,4.696,6.804
						C4.707,6.8,4.718,6.797,4.729,6.794z"/>
					<path fill="#D9272E" d="M4.193,6.865c0.017-0.002,0.034-0.003,0.052-0.003C4.244,6.838,4.243,6.815,4.242,6.794
						C4.226,6.792,4.208,6.79,4.188,6.789C4.19,6.814,4.192,6.839,4.193,6.865z"/>
					<path fill="#D9272E" d="M3.997,6.377c0.004,0.024,0.007,0.05,0.01,0.077c0.022-0.004,0.044-0.006,0.066-0.008
						c0-0.007-0.001-0.014-0.001-0.014c0.001,0.004,0.002,0.01,0.003,0.014c0.017-0.001,0.033,0,0.049,0.002
						C4.117,6.435,4.112,6.421,4.105,6.409C4.087,6.397,4.053,6.382,3.997,6.377z"/>
					<path fill="#D9272E" d="M4.667,6.105C4.672,6.12,4.68,6.139,4.689,6.163c0.029-0.008,0.055-0.012,0.076-0.015
						C4.757,6.123,4.75,6.099,4.744,6.075C4.714,6.084,4.687,6.094,4.667,6.105z"/>
					<path fill="#D9272E" d="M4.697,6.183c0.01,0.024,0.02,0.05,0.031,0.078C4.759,6.255,4.785,6.253,4.8,6.252
						C4.789,6.22,4.778,6.188,4.767,6.156C4.741,6.164,4.717,6.173,4.697,6.183z"/>
					<path fill="#D9272E" d="M4.734,6.274c0.01,0.023,0.02,0.047,0.029,0.07C4.802,6.338,4.83,6.338,4.83,6.338
						C4.807,6.343,4.787,6.349,4.768,6.355c0.011,0.024,0.021,0.048,0.031,0.07c0.008,0,0.013-0.001,0.013-0.001
						C4.808,6.425,4.805,6.426,4.801,6.427c0.021,0.045,0.041,0.082,0.056,0.1L4.848,6.55L4.828,6.59
						C4.823,6.578,4.812,6.552,4.799,6.521c-0.018,0.005-0.036,0.01-0.051,0.016C4.764,6.565,4.777,6.588,4.79,6.607
						c0.013-0.002,0.022-0.002,0.022-0.002C4.805,6.607,4.8,6.61,4.793,6.612c0.005,0.007,0.01,0.015,0.014,0.021
						c0.024-0.049,0.05-0.099,0.08-0.153C4.873,6.446,4.836,6.355,4.801,6.255C4.776,6.261,4.753,6.267,4.734,6.274z"/>
					<path fill="#D9272E" d="M4.58,6.078l0.001,0.044C4.604,6.105,4.63,6.093,4.657,6.085c0-0.003-0.001-0.006-0.001-0.006
						s0.002,0.003,0.003,0.006c0.031-0.01,0.06-0.015,0.083-0.017C4.733,6.035,4.727,6.006,4.723,5.98
						C4.633,6.012,4.595,6.052,4.58,6.078z"/>
					<path fill="#D9272E" d="M4.347,6.077c0.022,0.018,0.045,0.037,0.068,0.055C4.423,6.11,4.428,6.096,4.431,6.087
						C4.408,6.066,4.384,6.043,4.361,6.02C4.357,6.038,4.352,6.057,4.347,6.077z"/>
					<path fill="#D9272E" d="M4.424,6.14C4.463,6.17,4.498,6.195,4.522,6.208l0.001-0.039c-0.023-0.02-0.055-0.048-0.09-0.08
						C4.431,6.105,4.428,6.121,4.424,6.14z"/>
					<path fill="#D9272E" d="M4.935,6.549c0.001-0.004,0.001-0.009,0.001-0.009l0,0.009c0.021,0,0.041,0.001,0.062,0.004
						C5.002,6.53,5.005,6.509,5.008,6.489C4.973,6.495,4.949,6.505,4.935,6.514C4.929,6.526,4.923,6.538,4.918,6.549
						C4.923,6.549,4.929,6.549,4.935,6.549z"/>
					<path fill="#D9272E" d="M5.016,6.446c0.001-0.004,0.002-0.01,0.003-0.014c0,0,0,0.007-0.001,0.014
						C5.04,6.447,5.062,6.449,5.084,6.453C5.087,6.426,5.09,6.4,5.094,6.377c-0.056,0.005-0.09,0.02-0.108,0.032
						C4.979,6.421,4.973,6.435,4.967,6.447C4.983,6.446,4.999,6.445,5.016,6.446z"/>
					<path fill="#D9272E" d="M4.944,7.245C4.948,7.246,4.95,7.246,4.951,7.247C4.967,7.223,4.983,7.2,4.998,7.179
						C4.98,7.201,4.962,7.222,4.944,7.245z"/>
					<path fill="#D9272E" d="M4.942,7.247C4.854,7.363,4.771,7.491,4.691,7.626l0.001,0.024l0.009,0.002
						c0.068-0.116,0.163-0.273,0.249-0.404C4.948,7.247,4.945,7.248,4.942,7.247z"/>
					<path fill="#D9272E" d="M4.443,7.551C4.441,7.548,4.44,7.545,4.438,7.541c0.001-0.052-0.004-0.133-0.011-0.222
						C4.416,7.307,4.397,7.291,4.367,7.276C4.37,7.336,4.371,7.387,4.372,7.423C4.403,7.473,4.425,7.515,4.443,7.551L4.443,7.551z"
						/>
					<path fill="#D9272E" d="M4.276,6.016c0.015,0.013,0.035,0.03,0.056,0.048c0.008-0.02,0.014-0.038,0.02-0.054
						C4.331,5.989,4.311,5.969,4.293,5.948C4.288,5.97,4.283,5.993,4.276,6.016z"/>
					<path fill="#D9272E" d="M5.101,6.34c0.002-0.011,0.004-0.023,0.006-0.033c0,0-0.001,0.013-0.002,0.034
						c0.028,0.003,0.056,0.008,0.081,0.015C5.19,6.332,5.194,6.309,5.198,6.288C5.114,6.282,5.066,6.297,5.04,6.311
						C5.035,6.321,5.03,6.33,5.025,6.339C5.049,6.337,5.075,6.338,5.101,6.34z"/>
					<path fill="#D9272E" d="M5.072,6.254c0.043-0.004,0.089,0.003,0.13,0.013c0.005-0.022,0.009-0.043,0.014-0.061
						c0,0-0.002,0.024-0.006,0.063c0.028,0.007,0.052,0.015,0.072,0.022C5.288,6.254,5.294,6.219,5.3,6.188
						c-0.161-0.017-0.206,0.04-0.206,0.04l0.003-0.016C5.088,6.226,5.08,6.24,5.072,6.254z"/>
					<path fill="#D9272E" d="M5.131,6.155c0.056-0.009,0.121,0.001,0.173,0.016c0.005-0.022,0.01-0.044,0.015-0.062
						c0,0-0.003,0.025-0.007,0.064C5.338,6.181,5.36,6.188,5.376,6.194C5.382,6.16,5.388,6.128,5.395,6.099
						C5.2,6.067,5.149,6.134,5.149,6.134l0.002-0.01C5.144,6.135,5.137,6.145,5.131,6.155z"/>
					<path fill="#D9272E" d="M9.09,3.564c0,0-1.421,0.321-1.721,0.387C7.348,3.723,7.267,2.878,7.267,2.878S6.193,4.323,5.682,5.013
						c0.21-1.03,0.764-3.722,0.764-3.722S5.724,1.636,5.535,1.725C5.4,1.492,4.526,0,4.526,0L4.377,0.278
						c0,0-0.655,1.219-0.779,1.454C3.395,1.648,2.579,1.314,2.579,1.314l0.795,3.665L1.741,2.822c0,0-0.044,0.808-0.055,1.021
						C1.388,3.79,0,3.547,0,3.547s0.651,1.444,0.766,1.7c-0.183,0.086-0.76,0.357-0.76,0.357s1.391,1.109,2.138,1.703
						c0.039,0.018,0.081,0.038,0.121,0.06c0.013-0.002,0.024-0.003,0.036-0.005C2.187,7.274,2.063,7.19,2.063,7.19
						C2.13,7.214,2.242,7.286,2.341,7.356c0.018-0.003,0.035-0.005,0.052-0.008C2.274,7.261,2.138,7.174,2.138,7.174
						c0.071,0.023,0.195,0.099,0.298,0.168C2.449,7.34,2.464,7.338,2.478,7.336C2.356,7.234,2.203,7.122,2.203,7.122
						c0.076,0.031,0.21,0.126,0.315,0.208c0.024-0.003,0.047-0.004,0.071-0.006C2.463,7.214,2.276,7.077,2.276,7.077
						C2.363,7.112,2.527,7.233,2.636,7.32c0.013-0.001,0.027-0.002,0.04-0.003c-0.122-0.126-0.32-0.299-0.32-0.299
						C2.447,7.066,2.613,7.213,2.72,7.314C2.736,7.313,2.752,7.311,2.768,7.31c-0.115-0.13-0.34-0.338-0.34-0.338
						c0.099,0.057,0.285,0.233,0.387,0.336c0.02-0.001,0.037,0,0.057,0C2.775,7.178,2.51,6.911,2.51,6.911
						c0.11,0.071,0.323,0.298,0.411,0.396c0.021,0,0.043-0.001,0.064-0.001c-0.082-0.12-0.373-0.416-0.373-0.416
						C2.73,6.965,2.965,7.222,3.038,7.305c0.02,0,0.037,0.003,0.056,0.003C3.012,7.181,2.697,6.837,2.697,6.837
						c0.126,0.091,0.379,0.384,0.454,0.475c0.016,0.001,0.031,0.002,0.047,0.003C3.13,7.195,2.81,6.825,2.81,6.825
						c0.126,0.098,0.38,0.413,0.443,0.493c0.016,0.001,0.03,0.004,0.046,0.005C3.229,7.195,2.907,6.805,2.907,6.805
						C3.038,6.909,3.299,7.249,3.36,7.332c0.013,0.002,0.025,0.003,0.037,0.005C3.335,7.207,3.02,6.78,3.02,6.78
						c0.125,0.116,0.366,0.463,0.433,0.564C3.461,7.346,3.47,7.347,3.479,7.349C3.417,7.216,3.117,6.792,3.117,6.792
						C3.24,6.91,3.474,7.261,3.537,7.361c0.016,0.003,0.032,0.007,0.048,0.01L3.582,7.37C3.529,7.245,3.214,6.793,3.214,6.793
						C3.34,6.918,3.585,7.294,3.64,7.382c0.382,0.093,0.622,0.245,0.744,0.342l0.003-0.001l0.001,0.003c0,0,0.002,0.001,0.002,0.002
						l0-0.006c0,0-0.001,0-0.001-0.001c-0.078-0.165-0.324-0.554-0.392-0.66c-0.842-0.981-1.89-1.238-1.89-1.238L2.269,5.85
						l0.052,0.017C2.257,5.782,2.201,5.712,2.201,5.712c0.047,0.031,0.111,0.099,0.173,0.172l-0.03-0.01l0.109,0.035
						c-0.069-0.121-0.14-0.236-0.14-0.236c0.053,0.048,0.126,0.155,0.189,0.256c0.202,0.097,0.386,0.196,0.55,0.294
						C3.049,6.222,3.048,6.221,3.046,6.22C3.014,6.048,2.915,5.714,2.915,5.714C2.978,5.829,3.058,6.108,3.096,6.25
						C3.087,6.245,3.079,6.24,3.071,6.235C3.149,6.282,3.224,6.33,3.294,6.376C3.284,6.37,3.273,6.363,3.263,6.356
						c-0.005-0.13-0.119-0.584-0.119-0.584c0.07,0.145,0.155,0.53,0.174,0.62C3.316,6.391,3.314,6.389,3.312,6.388
						c0.146,0.098,0.273,0.194,0.386,0.288C3.683,6.663,3.667,6.65,3.651,6.637C3.66,6.541,3.624,6.208,3.606,6.05
						C3.604,6.051,3.603,6.051,3.601,6.052c0,0,0.003-0.002,0.005-0.003c-0.006-0.05-0.01-0.083-0.01-0.083
						c0.007,0.022,0.013,0.048,0.02,0.076c0.035-0.023,0.133-0.079,0.22-0.08c-0.01-0.015-0.021-0.029-0.031-0.044
						C3.777,5.903,3.703,5.88,3.556,5.946c0,0,0.11-0.082,0.209-0.083c-0.015-0.02-0.029-0.042-0.044-0.062
						C3.687,5.785,3.616,5.769,3.489,5.809c0,0,0.102-0.057,0.195-0.058C3.667,5.73,3.652,5.711,3.636,5.691
						C3.603,5.673,3.54,5.657,3.428,5.693c0,0,0.087-0.052,0.168-0.053C3.59,5.632,3.583,5.622,3.576,5.614
						c-0.02-0.016-0.075-0.042-0.192-0.005c0,0,0.081-0.044,0.154-0.042c-0.01-0.012-0.02-0.024-0.031-0.036
						C3.485,5.516,3.434,5.494,3.329,5.528c0,0,0.072-0.042,0.139-0.041C3.448,5.463,3.427,5.439,3.406,5.416
						c-0.026-0.013-0.07-0.023-0.147,0.002c0,0,0.056-0.035,0.113-0.039C3.356,5.36,3.339,5.342,3.323,5.324
						C3.299,5.312,3.259,5.304,3.195,5.326c0,0,0.045-0.032,0.094-0.037C3.274,5.272,3.259,5.257,3.243,5.241
						C3.221,5.229,3.185,5.22,3.128,5.24c0,0,0.038-0.028,0.081-0.034c-0.005-0.005-0.01-0.01-0.015-0.015l0.001,0.003
						c0,0-0.002-0.004-0.007-0.009c0,0-0.001-0.001-0.001-0.001C3.172,5.167,3.132,5.138,3.052,5.167c0,0,0.039-0.029,0.082-0.034
						c-0.021-0.021-0.043-0.042-0.063-0.06C3.057,5.073,2.984,5.076,2.955,5.08c0,0,0.062-0.025,0.09-0.032
						c-0.111-0.103-0.183-0.16-0.183-0.16l0.147,0.103L3.054,5.03C3.022,4.94,2.993,4.863,2.993,4.863
						c0.035,0.045,0.072,0.125,0.105,0.205l0.067,0.058C3.142,5.01,3.114,4.896,3.114,4.896c0.035,0.06,0.066,0.17,0.091,0.271
						L3.183,5.142l0,0v0c0.023,0.024,0.042,0.046,0.063,0.069l0.001,0l-0.01-0.01C3.234,5.074,3.221,4.938,3.221,4.938
						c0.026,0.069,0.042,0.193,0.052,0.301L3.263,5.228L3.263,5.23c0.02,0.021,0.039,0.042,0.058,0.063c0.001,0,0.001,0,0.002,0
						C3.322,5.292,3.32,5.291,3.319,5.289C3.311,5.156,3.29,5.005,3.29,5.005C3.322,5.08,3.344,5.218,3.358,5.332
						c-0.003-0.004-0.007-0.008-0.01-0.011l0,0.002c0.018,0.02,0.037,0.04,0.054,0.059l0.001,0l-0.009-0.01
						c0.002-0.139-0.007-0.316-0.007-0.316c0.027,0.081,0.038,0.233,0.043,0.351l0.001,0.007C3.454,5.44,3.473,5.464,3.494,5.49
						l0.001,0C3.493,5.486,3.49,5.483,3.487,5.479c0.006-0.142-0.006-0.362-0.006-0.362c0.032,0.094,0.042,0.286,0.045,0.407
						C3.522,5.52,3.518,5.516,3.514,5.512l0,0.002C3.531,5.532,3.547,5.551,3.562,5.57c0,0,0.001,0,0.001,0
						C3.561,5.567,3.558,5.563,3.555,5.56c0.023-0.14,0.036-0.377,0.036-0.377c0.022,0.099,0.01,0.299,0,0.419
						c-0.004-0.005-0.009-0.01-0.013-0.015l0,0.002C3.593,5.607,3.61,5.625,3.624,5.643c0.002,0,0.004,0.001,0.006,0.001
						c0.03-0.133,0.054-0.402,0.054-0.402c0.02,0.109-0.004,0.337-0.019,0.451C3.662,5.69,3.66,5.688,3.658,5.685l0,0
						c0.019,0.023,0.035,0.045,0.053,0.068c0.001,0,0.001,0,0.001,0C3.71,5.75,3.708,5.747,3.705,5.744
						c0.041-0.109,0.09-0.436,0.09-0.436C3.81,5.43,3.763,5.691,3.743,5.788l0.002,0.009c0.083,0.107,0.16,0.211,0.225,0.307
						c-0.009-0.013-0.018-0.027-0.028-0.04L3.937,6.051c0.049-0.079,0.138-0.474,0.138-0.474c0.004,0.145-0.084,0.47-0.101,0.53
						c0.091,0.133,0.166,0.256,0.228,0.368C4.193,6.461,4.185,6.446,4.176,6.43L4.173,6.421c0.023-0.03,0.059-0.109,0.094-0.193
						c-0.016-0.017-0.03-0.034-0.04-0.048c0,0,0.018,0.016,0.045,0.038C4.28,6.196,4.289,6.174,4.298,6.152
						C4.28,6.133,4.264,6.114,4.251,6.097C4.212,6.216,4.164,6.334,4.146,6.379C4.135,6.36,4.124,6.342,4.112,6.323
						c0.036-0.047,0.098-0.2,0.143-0.317C4.25,5.999,4.244,5.991,4.24,5.985c0,0,0.008,0.007,0.018,0.016
						c0.009-0.024,0.017-0.046,0.025-0.065C4.268,5.919,4.255,5.903,4.246,5.888c0,0,0.016,0.015,0.04,0.037
						C4.3,5.888,4.308,5.865,4.308,5.865c-0.002,0.02-0.006,0.045-0.012,0.07C4.315,5.951,4.336,5.97,4.359,5.99
						c0.007-0.019,0.012-0.033,0.012-0.033C4.37,5.968,4.367,5.982,4.365,5.995c0.057,0.05,0.12,0.102,0.159,0.126l0.001-0.034
						C4.467,6.03,4.31,5.869,4.257,5.772c0,0,0.193,0.21,0.269,0.259l0.001-0.05C4.472,5.926,4.321,5.765,4.27,5.67
						c0,0,0.186,0.209,0.257,0.258l0.001-0.049c-0.06-0.067-0.196-0.227-0.242-0.321c0,0,0.167,0.203,0.243,0.269L4.53,5.769
						C4.487,5.717,4.346,5.544,4.304,5.445c0,0,0.163,0.215,0.227,0.267l0.001-0.063c-0.055-0.068-0.17-0.213-0.208-0.302
						c0,0,0.136,0.179,0.209,0.25l0.001-0.052c-0.055-0.074-0.159-0.22-0.191-0.307c0,0,0.121,0.175,0.192,0.255l0.001-0.064
						c-0.055-0.08-0.14-0.208-0.168-0.288c0,0,0.099,0.15,0.169,0.239L4.538,5.33C4.486,5.247,4.413,5.121,4.39,5.044
						c0,0,0.084,0.143,0.149,0.235L4.54,5.217C4.493,5.132,4.437,5.022,4.418,4.952c0,0,0.064,0.12,0.123,0.214l0.001-0.043
						c-0.04-0.083-0.083-0.181-0.097-0.245c0,0,0.049,0.102,0.098,0.193l0.001-0.074C4.51,4.924,4.476,4.844,4.465,4.79
						c0,0,0.038,0.079,0.08,0.161l0.001-0.064C4.52,4.815,4.495,4.74,4.488,4.689c0,0,0.027,0.068,0.059,0.144l0.001-0.076
						c-0.019-0.055-0.036-0.11-0.041-0.149c0,0,0.018,0.046,0.042,0.104L4.554,4.45l0.005,0.285C4.56,4.739,4.562,4.742,4.563,4.746
						L4.562,4.796C4.561,4.794,4.56,4.793,4.56,4.791l0.001,0.065c0.033-0.035,0.092-0.023,0.092-0.023
						C4.564,4.844,4.562,4.911,4.562,4.911l0,0l0.001,0.046c0.037-0.034,0.1-0.024,0.1-0.024C4.591,4.942,4.57,4.98,4.563,5
						l0.001,0.063c0.042-0.04,0.117-0.03,0.117-0.03C4.58,5.047,4.567,5.105,4.565,5.114l0.001,0.053
						c0.046-0.038,0.126-0.031,0.126-0.031C4.602,5.149,4.575,5.19,4.566,5.211l0.001,0.064c0.049-0.041,0.135-0.035,0.135-0.035
						C4.597,5.257,4.574,5.306,4.568,5.322l0.001,0.062c0.05-0.04,0.133-0.034,0.133-0.034C4.609,5.366,4.579,5.408,4.57,5.429
						l0.001,0.072c0.057-0.049,0.157-0.04,0.157-0.04C4.614,5.479,4.581,5.532,4.572,5.557l0.001,0.041
						C4.637,5.553,4.74,5.561,4.74,5.561c-0.107,0.018-0.15,0.06-0.167,0.088l0.001,0.06c0.068-0.043,0.176-0.024,0.176-0.024
						C4.638,5.693,4.593,5.733,4.575,5.759l0.001,0.069C4.648,5.779,4.769,5.79,4.769,5.79C4.636,5.807,4.592,5.858,4.577,5.884
						l0.001,0.047c0.076-0.053,0.196-0.057,0.196-0.057c-0.125,0.031-0.175,0.08-0.195,0.11l0.001,0.038
						c0.043-0.031,0.099-0.046,0.142-0.053c0,0-0.002-0.009-0.002-0.012c0,0,0.002,0.006,0.004,0.012
						c0.032-0.005,0.056-0.006,0.056-0.006c-0.02,0.005-0.036,0.01-0.052,0.016c0.007,0.019,0.018,0.05,0.032,0.086
						c0.013-0.001,0.022-0.001,0.022-0.001c-0.007,0.002-0.013,0.004-0.02,0.006C4.77,6.093,4.78,6.119,4.79,6.146
						c0.008-0.001,0.014-0.001,0.014-0.001C4.8,6.146,4.796,6.147,4.792,6.149c0.043,0.11,0.096,0.234,0.127,0.273L4.915,6.43
						C4.906,6.447,4.896,6.463,4.887,6.48c0.026-0.047,0.055-0.096,0.086-0.147c-0.01,0.016-0.019,0.031-0.029,0.047
						c-0.032-0.077-0.15-0.372-0.161-0.514c0,0,0.135,0.379,0.195,0.458c0.005-0.008,0.01-0.016,0.015-0.025
						C4.963,6.219,4.849,5.913,4.839,5.769c0,0,0.132,0.396,0.19,0.474C5.02,6.257,5.012,6.27,5.003,6.283
						c0.035-0.057,0.073-0.115,0.114-0.176C5.1,6.047,5.013,5.722,5.017,5.577c0,0,0.089,0.395,0.138,0.474L5.147,6.065
						c-0.007,0.01-0.013,0.019-0.02,0.029C5.169,6.033,5.214,5.97,5.262,5.905C5.248,5.835,5.19,5.535,5.207,5.402
						c0,0,0.054,0.361,0.096,0.45C5.3,5.855,5.297,5.859,5.294,5.863c0.016-0.022,0.035-0.045,0.052-0.067L5.348,5.79
						C5.329,5.695,5.281,5.431,5.296,5.308c0,0,0.049,0.327,0.09,0.436C5.383,5.747,5.38,5.751,5.378,5.754l0.001,0
						c0.018-0.023,0.035-0.045,0.054-0.069l0,0C5.431,5.688,5.428,5.69,5.426,5.693C5.411,5.579,5.388,5.351,5.407,5.242
						c0,0,0.025,0.269,0.055,0.402c0.002,0,0.003-0.001,0.005-0.001c0.014-0.018,0.031-0.036,0.046-0.054l0-0.002
						C5.509,5.592,5.504,5.597,5.5,5.603c-0.01-0.12-0.022-0.32-0.001-0.419c0,0,0.013,0.237,0.036,0.377
						C5.533,5.564,5.53,5.567,5.527,5.57c0,0,0.001,0,0.001,0C5.544,5.551,5.56,5.532,5.576,5.513l0-0.002
						C5.573,5.516,5.569,5.52,5.565,5.525c0.003-0.121,0.013-0.313,0.046-0.407c0,0-0.012,0.219-0.006,0.362
						C5.601,5.483,5.598,5.486,5.595,5.49c0,0,0.001,0,0.001,0C5.618,5.464,5.637,5.44,5.66,5.414l0.002-0.01
						c0.005-0.118,0.015-0.267,0.042-0.347c0,0-0.01,0.177-0.007,0.316l-0.009,0.01h0c0.017-0.02,0.037-0.04,0.055-0.06l0-0.002
						C5.74,5.324,5.737,5.328,5.733,5.332C5.747,5.218,5.769,5.08,5.8,5.005c0,0-0.019,0.151-0.028,0.284
						C5.77,5.291,5.769,5.292,5.768,5.294c0.001,0,0.001,0,0.002,0C5.789,5.272,5.808,5.251,5.827,5.23l0-0.001l-0.01,0.011
						c0.01-0.108,0.026-0.232,0.052-0.301c0,0-0.012,0.136-0.017,0.264l-0.009,0.01c0,0,0.001,0,0.001,0
						c0.022-0.023,0.041-0.045,0.063-0.069l0,0L5.885,5.166c0.025-0.101,0.057-0.21,0.092-0.271c0,0-0.028,0.114-0.051,0.231
						l0.067-0.058c0.033-0.08,0.07-0.159,0.104-0.204c0,0-0.029,0.076-0.061,0.166L6.011,5.052l0.07-0.061l0.147-0.103
						c0,0-0.072,0.057-0.183,0.16c0.028,0.007,0.09,0.032,0.09,0.032C6.107,5.076,6.033,5.073,6.019,5.072
						c-0.019,0.018-0.041,0.039-0.063,0.06C6,5.137,6.039,5.167,6.039,5.167C5.932,5.128,5.896,5.194,5.896,5.194l0.001-0.003
						c-0.005,0.005-0.01,0.011-0.015,0.016C5.924,5.212,5.962,5.24,5.962,5.24C5.904,5.219,5.868,5.229,5.847,5.242
						c-0.015,0.016-0.03,0.03-0.046,0.047C5.85,5.294,5.895,5.326,5.895,5.326C5.831,5.304,5.791,5.312,5.767,5.325
						C5.751,5.342,5.735,5.361,5.718,5.379c0.058,0.004,0.113,0.039,0.113,0.039C5.754,5.392,5.71,5.403,5.684,5.416
						c-0.02,0.023-0.041,0.047-0.062,0.071c0.067-0.001,0.139,0.041,0.139,0.041C5.656,5.494,5.605,5.516,5.584,5.532
						c-0.01,0.012-0.02,0.023-0.03,0.036c0.073-0.003,0.154,0.042,0.154,0.042C5.589,5.572,5.535,5.598,5.515,5.614
						C5.508,5.622,5.501,5.632,5.494,5.64c0.082,0,0.169,0.053,0.169,0.053C5.55,5.657,5.487,5.673,5.455,5.691
						c-0.016,0.02-0.032,0.04-0.047,0.061c0.093,0,0.196,0.058,0.196,0.058c-0.129-0.04-0.2-0.024-0.234-0.006
						C5.354,5.822,5.34,5.843,5.325,5.864c0.099,0.001,0.209,0.083,0.209,0.083C5.388,5.88,5.314,5.903,5.286,5.919
						c-0.01,0.015-0.021,0.029-0.031,0.044c0.088,0.001,0.185,0.057,0.22,0.079c0.006-0.029,0.013-0.054,0.02-0.076
						c0,0-0.004,0.032-0.01,0.083C5.488,6.05,5.49,6.052,5.49,6.052C5.488,6.051,5.487,6.051,5.485,6.05
						C5.467,6.207,5.431,6.541,5.44,6.637C5.424,6.65,5.409,6.663,5.393,6.675C5.449,6.629,5.507,6.583,5.57,6.536
						c0.013-0.081,0.083-0.513,0.15-0.68c0,0-0.101,0.514-0.097,0.638l-0.01,0.011C5.6,6.514,5.587,6.523,5.575,6.532
						C5.64,6.484,5.709,6.435,5.783,6.386C5.779,6.388,5.776,6.39,5.773,6.392c0.02-0.09,0.103-0.475,0.174-0.62
						c0,0-0.113,0.454-0.119,0.584C5.816,6.364,5.803,6.372,5.791,6.38c0.068-0.046,0.142-0.092,0.218-0.138
						C6.004,6.245,6,6.247,5.996,6.25c0.037-0.142,0.117-0.421,0.18-0.537c0,0-0.099,0.335-0.132,0.507
						C6.041,6.222,6.039,6.223,6.037,6.225C6.202,6.126,6.386,6.027,6.59,5.929c0.063-0.101,0.136-0.208,0.19-0.257
						c0,0-0.072,0.115-0.14,0.236L6.761,5.87L6.717,5.883c0.061-0.073,0.125-0.14,0.173-0.172c0,0-0.056,0.071-0.121,0.155
						L6.822,5.85l0.162-0.026c0,0-1.049,0.258-1.891,1.24c-0.061,0.096-0.26,0.41-0.358,0.595L4.76,7.665L4.742,7.697
						c0.131-0.097,0.362-0.231,0.709-0.315c0.054-0.088,0.299-0.464,0.426-0.589c0,0-0.315,0.452-0.368,0.576L5.506,7.371
						c0.016-0.003,0.032-0.007,0.048-0.01c0.063-0.1,0.296-0.451,0.419-0.569c0,0-0.3,0.423-0.36,0.556
						C5.621,7.347,5.63,7.346,5.639,7.344C5.706,7.243,5.946,6.896,6.071,6.78c0,0-0.315,0.427-0.377,0.557
						c0.012-0.002,0.025-0.003,0.037-0.005c0.061-0.083,0.323-0.423,0.454-0.527c0,0-0.323,0.39-0.392,0.519
						c0.015-0.002,0.03-0.004,0.045-0.005c0.063-0.08,0.317-0.396,0.443-0.493c0,0-0.32,0.37-0.388,0.49
						C5.908,7.314,5.925,7.313,5.94,7.312c0.075-0.091,0.328-0.384,0.454-0.475c0,0-0.315,0.344-0.398,0.472
						c0.019-0.001,0.036-0.003,0.056-0.003c0.073-0.083,0.309-0.34,0.426-0.416c0,0-0.29,0.296-0.373,0.416
						c0.021,0,0.043,0,0.064,0.001C6.258,7.209,6.471,6.982,6.58,6.911c0,0-0.265,0.268-0.36,0.396c0.019,0,0.037,0,0.056,0
						c0.102-0.103,0.288-0.279,0.387-0.336c0,0-0.226,0.208-0.341,0.338c0.016,0.001,0.033,0.003,0.049,0.004
						c0.106-0.101,0.272-0.247,0.363-0.295c0,0-0.198,0.173-0.32,0.299c0.013,0.001,0.026,0.002,0.04,0.003
						c0.109-0.087,0.273-0.208,0.361-0.243c0,0-0.187,0.137-0.314,0.247C6.525,7.326,6.548,7.327,6.573,7.33
						c0.106-0.082,0.24-0.177,0.316-0.208c0,0-0.153,0.112-0.275,0.214C6.627,7.338,6.641,7.34,6.655,7.342
						c0.103-0.069,0.227-0.146,0.298-0.168c0,0-0.135,0.088-0.255,0.174C6.716,7.351,6.733,7.353,6.75,7.356
						c0.098-0.07,0.21-0.142,0.277-0.166c0,0-0.124,0.084-0.239,0.172c0.01,0.002,0.019,0.003,0.029,0.004
						c0.777-0.58,2.249-1.678,2.249-1.678s-0.642-0.305-0.84-0.4C8.357,5.03,9.09,3.564,9.09,3.564z M4.285,7.645
						C4.266,7.633,4.247,7.62,4.225,7.607C4.147,7.43,3.912,7.022,3.912,7.022C4.02,7.153,4.215,7.511,4.285,7.645z M4.168,7.574
						C4.151,7.565,4.132,7.556,4.113,7.546C4.029,7.363,3.806,6.983,3.806,6.983C3.909,7.105,4.089,7.426,4.168,7.574z M4.059,7.52
						C4.042,7.512,4.024,7.504,4.005,7.497C3.925,7.32,3.693,6.931,3.693,6.931C3.797,7.053,3.981,7.376,4.059,7.52z M3.954,7.476
						C3.937,7.47,3.92,7.463,3.902,7.457C3.826,7.288,3.584,6.889,3.584,6.889C3.69,7.011,3.878,7.336,3.954,7.476z M3.846,7.438
						C3.829,7.433,3.811,7.427,3.792,7.422C3.734,7.279,3.46,6.833,3.46,6.833C3.574,6.962,3.783,7.322,3.846,7.438z M3.75,7.41
						L3.711,7.4L3.689,7.39c-0.05-0.123-0.355-0.575-0.355-0.575C3.46,6.943,3.706,7.336,3.75,7.41z M3.618,6.611
						C3.6,6.596,3.58,6.582,3.561,6.567c0.008-0.128-0.087-0.661-0.087-0.661C3.541,6.079,3.606,6.524,3.618,6.611z M3.521,6.536
						c-0.014-0.01-0.029-0.021-0.043-0.031L3.467,6.494C3.471,6.37,3.371,5.856,3.371,5.856C3.437,6.023,3.508,6.455,3.521,6.536z
						 M3.424,6.465C3.406,6.453,3.388,6.439,3.368,6.427C3.367,6.291,3.256,5.789,3.256,5.789C3.326,5.949,3.405,6.364,3.424,6.465z
						 M3.201,6.315C3.184,6.305,3.167,6.294,3.15,6.283C3.135,6.132,3.032,5.72,3.032,5.72C3.098,5.854,3.174,6.194,3.201,6.315z
						 M2.543,5.95C2.484,5.805,2.415,5.654,2.415,5.654c0.051,0.063,0.117,0.197,0.172,0.317C2.572,5.964,2.558,5.957,2.543,5.95z
						 M2.646,6C2.581,5.852,2.499,5.689,2.499,5.689c0.058,0.065,0.135,0.213,0.195,0.337C2.678,6.017,2.662,6.009,2.646,6z
						 M2.74,6.049C2.682,5.886,2.598,5.688,2.598,5.688c0.058,0.077,0.134,0.25,0.189,0.386C2.772,6.066,2.756,6.057,2.74,6.049z
						 M2.861,6.114C2.804,5.945,2.699,5.698,2.699,5.698c0.067,0.089,0.158,0.306,0.212,0.444C2.895,6.133,2.878,6.124,2.861,6.114z
						 M2.997,6.191c-0.016-0.008-0.03-0.018-0.046-0.027C2.909,5.988,2.816,5.703,2.816,5.703C2.877,5.806,2.953,6.045,2.997,6.191z
						 M3.789,5.852c0.042-0.089,0.095-0.45,0.095-0.45C3.901,5.535,3.843,5.836,3.83,5.905C3.816,5.888,3.802,5.87,3.789,5.852z
						 M3.905,6.01c-0.013-0.018-0.026-0.037-0.04-0.055c0.048-0.091,0.122-0.483,0.122-0.483C3.997,5.614,3.923,5.932,3.905,6.01z
						 M4.001,6.149c0.054-0.08,0.155-0.484,0.155-0.484C4.159,5.815,4.06,6.145,4.04,6.209C4.028,6.189,4.014,6.169,4.001,6.149z
						 M4.097,6.298C4.086,6.28,4.074,6.261,4.063,6.243c0.058-0.078,0.19-0.474,0.19-0.474C4.242,5.913,4.127,6.22,4.097,6.298z
						 M4.569,4.753L4.564,4.722l0.08-0.042C4.623,4.698,4.569,4.753,4.569,4.753z M5.09,6.149c-0.014,0.02-0.027,0.04-0.04,0.06
						C5.031,6.145,4.932,5.815,4.935,5.665C4.935,5.665,5.036,6.069,5.09,6.149z M5.226,5.955C5.212,5.973,5.199,5.992,5.186,6.01
						C5.167,5.932,5.094,5.614,5.104,5.471C5.104,5.471,5.178,5.864,5.226,5.955z M5.53,6.567C5.511,6.582,5.491,6.596,5.473,6.611
						c0.012-0.087,0.077-0.532,0.144-0.705C5.617,5.906,5.522,6.439,5.53,6.567z M5.722,6.427C5.704,6.439,5.685,6.453,5.667,6.465
						c0.019-0.102,0.098-0.517,0.168-0.677C5.835,5.789,5.724,6.291,5.722,6.427z M5.941,6.283C5.924,6.294,5.906,6.305,5.89,6.315
						C5.916,6.194,5.993,5.854,6.06,5.72C6.06,5.72,5.956,6.132,5.941,6.283z M6.093,6.191c0.044-0.146,0.121-0.385,0.182-0.488
						c0,0-0.092,0.284-0.135,0.461C6.124,6.174,6.109,6.183,6.093,6.191z M6.179,6.142c0.055-0.139,0.146-0.355,0.212-0.444
						c0,0-0.104,0.247-0.162,0.416C6.213,6.124,6.196,6.133,6.179,6.142z M6.304,6.073c0.055-0.136,0.132-0.309,0.188-0.386
						c0,0-0.084,0.199-0.142,0.362C6.335,6.057,6.32,6.066,6.304,6.073z M6.396,6.026c0.06-0.124,0.138-0.272,0.195-0.337
						c0,0-0.082,0.163-0.147,0.312C6.429,6.009,6.413,6.017,6.396,6.026z M6.548,5.95c-0.015,0.007-0.03,0.014-0.044,0.022
						c0.055-0.12,0.121-0.254,0.173-0.317C6.676,5.654,6.607,5.805,6.548,5.95z M4.805,7.645c0.07-0.135,0.265-0.492,0.373-0.623
						c0,0-0.235,0.408-0.313,0.585C4.845,7.62,4.824,7.633,4.805,7.645z M4.923,7.574c0.079-0.149,0.259-0.469,0.361-0.591
						c0,0-0.223,0.379-0.307,0.563C4.958,7.556,4.941,7.565,4.923,7.574z M5.032,7.52C5.11,7.376,5.294,7.053,5.399,6.931
						c0,0-0.233,0.389-0.313,0.566C5.067,7.504,5.05,7.512,5.032,7.52z M5.136,7.476c0.077-0.139,0.264-0.465,0.37-0.587
						c0,0-0.242,0.399-0.318,0.568C5.171,7.463,5.154,7.47,5.136,7.476z M5.245,7.438C5.308,7.322,5.517,6.962,5.63,6.833
						c0,0-0.274,0.446-0.332,0.589C5.28,7.427,5.262,7.433,5.245,7.438z M5.401,7.39L5.38,7.4L5.341,7.41
						c0.044-0.073,0.29-0.467,0.417-0.595C5.757,6.814,5.452,7.266,5.401,7.39z"/>
					<path fill="#D9272E" d="M3.942,6.134c0,0-0.051-0.067-0.246-0.035c0.007,0.029,0.013,0.06,0.019,0.095
						c0.016-0.006,0.038-0.014,0.064-0.021C3.775,6.134,3.772,6.109,3.772,6.109c0.005,0.018,0.01,0.039,0.015,0.062
						C3.84,6.156,3.904,6.146,3.96,6.155c-0.006-0.01-0.013-0.02-0.019-0.03L3.942,6.134z"/>
					<path fill="#D9272E" d="M4.724,7.276c-0.03,0.014-0.049,0.03-0.061,0.043C4.656,7.408,4.652,7.489,4.653,7.541
						C4.65,7.546,4.648,7.55,4.646,7.555h0c0.018-0.036,0.04-0.08,0.072-0.132C4.719,7.387,4.721,7.336,4.724,7.276z"/>
					<path fill="#D9272E" d="M4.147,7.245C4.129,7.221,4.111,7.2,4.093,7.177C4.108,7.199,4.124,7.223,4.14,7.247
						C4.141,7.246,4.143,7.246,4.147,7.245z"/>
					<path fill="#D9272E" d="M3.997,6.228c0,0-0.045-0.057-0.206-0.04c0.006,0.031,0.012,0.066,0.018,0.103
						c0.02-0.007,0.044-0.015,0.072-0.021C3.877,6.231,3.875,6.207,3.875,6.207C3.88,6.224,3.884,6.246,3.889,6.267
						c0.041-0.01,0.087-0.016,0.13-0.013C4.01,6.24,4.003,6.226,3.994,6.212L3.997,6.228z"/>
					<path fill="#D9272E" d="M4.303,6.138C4.311,6.119,4.318,6.1,4.325,6.083C4.306,6.064,4.288,6.045,4.273,6.027
						C4.266,6.049,4.26,6.071,4.252,6.093C4.264,6.103,4.282,6.119,4.303,6.138z"/>
					<polygon fill="#D9272E" points="3.167,5.128 3.182,5.141 3.182,5.141 					"/>
					<path fill="#D9272E" d="M4.331,7.358c0.002-0.026,0.002-0.059,0.002-0.095C4.32,7.259,4.305,7.255,4.289,7.252
						C4.289,7.268,4.29,7.285,4.29,7.299C4.278,7.282,4.266,7.265,4.253,7.248h0c0.037,0.05,0.068,0.095,0.095,0.138
						C4.342,7.376,4.337,7.367,4.331,7.358z"/>
					<path fill="#D9272E" d="M4.395,7.616C4.316,7.485,4.235,7.361,4.149,7.247c-0.003,0-0.006,0-0.009,0
						c0.088,0.133,0.185,0.294,0.253,0.41L4.395,7.616z"/>
					<path fill="#D9272E" d="M4.353,6.285c0.008-0.019,0.016-0.038,0.023-0.056C4.356,6.21,4.337,6.191,4.318,6.173
						C4.311,6.194,4.303,6.216,4.296,6.238C4.314,6.253,4.333,6.268,4.353,6.285z"/>
					<path fill="#D9272E" d="M4.404,6.158C4.383,6.139,4.361,6.119,4.341,6.099C4.335,6.117,4.33,6.136,4.324,6.155
						c0.019,0.016,0.04,0.034,0.061,0.051C4.392,6.188,4.398,6.173,4.404,6.158z"/>
					<path fill="#D9272E" d="M4.083,6.489c0.003,0.02,0.006,0.041,0.009,0.063C4.113,6.55,4.134,6.548,4.154,6.549L4.154,6.536
						c0.001,0.004,0.002,0.009,0.003,0.013c0.006,0,0.011,0,0.017,0.001C4.167,6.538,4.162,6.526,4.156,6.514
						C4.142,6.505,4.118,6.495,4.083,6.489z"/>
					<path fill="#D9272E" d="M4.318,6.367c0.009-0.02,0.018-0.041,0.027-0.062C4.326,6.288,4.307,6.27,4.291,6.253
						C4.282,6.279,4.272,6.304,4.264,6.327C4.278,6.338,4.296,6.351,4.318,6.367z"/>
					<path fill="#D9272E" d="M4.311,6.382C4.292,6.366,4.275,6.35,4.261,6.335C4.251,6.36,4.243,6.382,4.235,6.402
						c0.001,0.001,0.021,0.016,0.05,0.037C4.293,6.421,4.302,6.402,4.311,6.382z"/>
					<path fill="#D9272E" d="M4.275,6.615c0.004,0.003,0.008,0.006,0.014,0.01c0.009-0.012,0.019-0.027,0.03-0.046
						C4.305,6.567,4.294,6.556,4.282,6.544C4.274,6.564,4.267,6.581,4.263,6.59L4.242,6.55L4.235,6.528
						c0.004-0.004,0.008-0.013,0.012-0.019C4.245,6.507,4.243,6.505,4.242,6.504c0,0,0.003,0.002,0.006,0.004
						c0.01-0.015,0.021-0.035,0.033-0.059C4.263,6.433,4.246,6.416,4.235,6.402C4.221,6.436,4.21,6.464,4.204,6.479
						C4.23,6.527,4.253,6.571,4.275,6.615z"/>
					<path fill="#D9272E" d="M3.893,6.288c0.004,0.021,0.008,0.045,0.011,0.068C3.93,6.349,3.958,6.344,3.986,6.341
						C3.984,6.32,3.984,6.307,3.984,6.307C3.986,6.317,3.988,6.329,3.99,6.34c0.026-0.003,0.051-0.003,0.076-0.001
						C4.061,6.33,4.055,6.321,4.05,6.311C4.025,6.297,3.977,6.282,3.893,6.288z"/>
					<path fill="#D9272E" d="M4.627,6.506c0.007,0.015,0.015,0.03,0.022,0.046c0.019-0.008,0.039-0.014,0.058-0.019
						C4.698,6.513,4.689,6.492,4.68,6.471C4.658,6.483,4.641,6.494,4.627,6.506z"/>
					<path fill="#D9272E" d="M4.699,6.65c0.007,0.014,0.015,0.028,0.022,0.04c0.023-0.007,0.041-0.011,0.054-0.014
						c-0.007-0.013-0.015-0.03-0.024-0.05C4.731,6.634,4.714,6.642,4.699,6.65z"/>
					<path fill="#D9272E" d="M4.251,7.224C4.252,7.191,4.252,7.152,4.251,7.11C4.238,7.109,4.222,7.108,4.206,7.108
						C4.207,7.139,4.208,7.167,4.209,7.19c-0.013-0.017-0.026-0.034-0.04-0.051c0.001-0.009,0.001-0.021,0.001-0.031
						c-0.008,0-0.017,0.001-0.026,0.002c0.034,0.04,0.065,0.079,0.093,0.116C4.242,7.225,4.246,7.225,4.251,7.224z"/>
					<path fill="#D9272E" d="M4.662,6.578C4.671,6.596,4.68,6.613,4.689,6.63c0.02-0.006,0.039-0.011,0.057-0.015
						c-0.009-0.02-0.019-0.041-0.03-0.064C4.695,6.56,4.677,6.569,4.662,6.578z"/>
					<path fill="#D9272E" d="M4.676,6.395C4.683,6.41,4.691,6.425,4.698,6.44c0.024-0.006,0.045-0.01,0.064-0.012
						c-0.008-0.02-0.016-0.041-0.024-0.063C4.714,6.375,4.693,6.385,4.676,6.395z"/>
					<path fill="#D9272E" d="M4.484,6.281C4.498,6.291,4.51,6.299,4.52,6.304l0.001-0.046C4.514,6.253,4.506,6.246,4.496,6.238
						C4.493,6.252,4.489,6.266,4.484,6.281z"/>
					<path fill="#D9272E" d="M4.641,6.32c0.007,0.015,0.015,0.032,0.023,0.048C4.687,6.36,4.71,6.354,4.733,6.349
						C4.725,6.328,4.717,6.306,4.71,6.284C4.682,6.296,4.658,6.308,4.641,6.32z"/>
					<path fill="#D9272E" d="M4.605,6.243C4.611,6.256,4.618,6.272,4.627,6.29c0.025-0.011,0.052-0.019,0.077-0.025
						C4.695,6.239,4.687,6.214,4.681,6.19C4.646,6.208,4.622,6.226,4.605,6.243z"/>
					<path fill="#D9272E" d="M4.931,6.656C4.95,6.657,4.969,6.66,4.987,6.663c0.002-0.026,0.005-0.051,0.008-0.075
						c-0.023,0.001-0.044,0.004-0.06,0.007C4.933,6.612,4.933,6.633,4.931,6.656z"/>
					<path fill="#D9272E" d="M5.003,7.001c0,0.015,0.001,0.031,0.001,0.044C4.99,7.06,4.976,7.076,4.963,7.092
						c0.001-0.025,0.002-0.059,0.003-0.094c-0.016-0.001-0.031,0-0.045,0c0,0.033,0,0.063,0,0.091
						c0.013,0.003,0.026,0.006,0.037,0.009c0.026-0.03,0.055-0.061,0.085-0.093C5.028,7.003,5.016,7.002,5.003,7.001z"/>
					<path fill="#D9272E" d="M4.838,7.248L4.838,7.248C4.824,7.265,4.812,7.282,4.801,7.299c0-0.014,0.001-0.03,0.002-0.047
						C4.786,7.255,4.771,7.259,4.758,7.263c0,0.036,0.001,0.069,0.002,0.095C4.756,7.364,4.753,7.37,4.748,7.376
						C4.774,7.337,4.803,7.294,4.838,7.248z"/>
					<path fill="#D9272E" d="M4.922,7.109c0,0.01,0,0.022,0.001,0.031C4.908,7.157,4.894,7.173,4.882,7.19
						c0.001-0.023,0.002-0.051,0.003-0.082c-0.016,0-0.032,0-0.046,0.002c0,0.042,0,0.081,0.001,0.114
						c0.005,0,0.009,0.001,0.013,0.002C4.882,7.189,4.913,7.151,4.947,7.11C4.938,7.11,4.93,7.109,4.922,7.109z"/>
					<path fill="#D9272E" d="M5.007,6.693C5.006,6.72,5.005,6.748,5.005,6.775c0.02,0.005,0.038,0.011,0.053,0.016
						c0.001-0.03,0.003-0.061,0.005-0.093C5.043,6.696,5.025,6.694,5.007,6.693z"/>
					<path fill="#D9272E" d="M5.004,6.793C5.003,6.824,5.003,6.855,5.002,6.885C5.022,6.89,5.039,6.895,5.053,6.9
						c0.001-0.03,0.002-0.062,0.004-0.098C5.039,6.799,5.02,6.795,5.004,6.793z"/>
					<path fill="#D9272E" d="M4.766,6.438C4.744,6.444,4.724,6.451,4.707,6.459C4.719,6.482,4.73,6.504,4.742,6.525
						c0.022-0.004,0.041-0.007,0.055-0.009C4.788,6.493,4.777,6.467,4.766,6.438z"/>
					<path fill="#D9272E" d="M4.104,6.663C4.122,6.66,4.141,6.657,4.16,6.656c-0.001-0.023-0.002-0.043-0.003-0.06
						C4.14,6.591,4.12,6.589,4.097,6.588C4.099,6.612,4.102,6.637,4.104,6.663z"/>
					<path fill="#D9272E" d="M4.174,6.655c0.017-0.001,0.034,0,0.051,0.002C4.217,6.641,4.21,6.626,4.202,6.611
						c-0.01-0.005-0.022-0.009-0.037-0.014C4.168,6.615,4.171,6.635,4.174,6.655z"/>
					<polygon fill="#D9272E" points="4.284,6.632 4.285,6.631 4.281,6.626 					"/>
					<path fill="#D9272E" d="M4.17,7.088c0.001-0.028,0.001-0.058,0-0.091c-0.015,0-0.029-0.001-0.045,0
						c0.001,0.036,0.003,0.069,0.004,0.095C4.115,7.076,4.1,7.06,4.087,7.045c0.001-0.012,0.001-0.029,0.001-0.044
						c-0.013,0.001-0.026,0.002-0.04,0.004c0.029,0.031,0.059,0.063,0.085,0.093C4.144,7.094,4.157,7.091,4.17,7.088z"/>
					<path fill="#D9272E" d="M4.089,6.885c0-0.029-0.001-0.06-0.002-0.091C4.071,6.795,4.052,6.799,4.033,6.802
						C4.035,6.838,4.036,6.87,4.037,6.9C4.052,6.895,4.069,6.89,4.089,6.885z"/>
					<path fill="#D9272E" d="M4.302,6.669c0.016,0.034,0.03,0.065,0.044,0.096l0.001,0.001C4.344,6.758,4.341,6.751,4.338,6.744
						C4.346,6.732,4.355,6.717,4.364,6.7C4.35,6.689,4.335,6.677,4.321,6.666c-0.004,0.007-0.008,0.015-0.01,0.021
						C4.308,6.681,4.305,6.675,4.302,6.669z"/>
					<path fill="#D9272E" d="M4.087,6.775C4.086,6.748,4.085,6.72,4.084,6.693C4.067,6.694,4.048,6.696,4.028,6.699
						C4.03,6.731,4.031,6.762,4.033,6.791C4.049,6.786,4.067,6.78,4.087,6.775z"/>
					<path fill="#D9272E" d="M4.431,6.574C4.415,6.562,4.399,6.55,4.382,6.537c-0.008,0.018-0.016,0.034-0.023,0.05
						C4.375,6.598,4.391,6.609,4.408,6.62C4.415,6.605,4.423,6.59,4.431,6.574z"/>
					<path fill="#D9272E" d="M4.4,6.425c0.008-0.017,0.016-0.033,0.024-0.05c-0.019-0.016-0.038-0.032-0.058-0.05
						C4.359,6.346,4.352,6.366,4.345,6.386C4.363,6.399,4.381,6.412,4.4,6.425z"/>
					<path fill="#D9272E" d="M4.437,6.349c0.008-0.017,0.015-0.032,0.022-0.047C4.438,6.284,4.417,6.265,4.394,6.245
						C4.388,6.264,4.382,6.283,4.375,6.302C4.396,6.319,4.417,6.335,4.437,6.349z"/>
					<path fill="#D9272E" d="M4.364,6.496C4.373,6.48,4.381,6.464,4.39,6.447C4.372,6.433,4.355,6.419,4.337,6.405
						C4.33,6.425,4.323,6.444,4.316,6.462C4.331,6.473,4.347,6.484,4.364,6.496z"/>
					<path fill="#D9272E" d="M4.402,6.219c0.025,0.02,0.048,0.038,0.07,0.054c0.007-0.016,0.013-0.029,0.018-0.04
						c-0.022-0.018-0.047-0.04-0.074-0.064C4.412,6.186,4.407,6.202,4.402,6.219z"/>
					<path fill="#D9272E" d="M4.374,6.684C4.381,6.67,4.389,6.656,4.397,6.641c-0.016-0.012-0.03-0.024-0.046-0.036
						C4.342,6.622,4.335,6.638,4.328,6.652C4.342,6.662,4.357,6.673,4.374,6.684z"/>
					<path fill="#D9272E" d="M4.327,6.565c0.009-0.016,0.018-0.032,0.028-0.05C4.339,6.502,4.324,6.489,4.31,6.477
						C4.301,6.499,4.293,6.519,4.286,6.536C4.298,6.544,4.312,6.554,4.327,6.565z"/>
				</g>
			</g>
		</g>
	</g>
</g>
</svg>
